<svg width="361" height="361" viewBox="0 0 361 361" fill="none" xmlns="http://www.w3.org/2000/svg">
<path d="M180.5 361C280.187 361 361 280.187 361 180.5C361 80.8126 280.187 0 180.5 0C80.8126 0 0 80.8126 0 180.5C0 280.187 80.8126 361 180.5 361Z" fill="#FF7058"/>
<path d="M284.536 121.944V152.928H67.3677V104.605C67.3677 98.9197 71.9158 94.3717 77.6008 94.3717H105.742C108.3 94.3717 110.858 95.2244 112.848 97.2142L125.639 109.153C127.629 110.858 129.903 111.995 132.746 111.995H274.303C279.988 111.711 284.536 116.259 284.536 121.944Z" fill="#FFD05B"/>
<path d="M273.45 158.328L307.561 110.574C310.119 106.879 309.266 102.046 305.571 99.4882L218.59 37.5213L204.946 56.5661C202.387 60.2614 197.555 60.8299 193.86 58.5559L174.815 44.9118L94.0874 158.328H273.45Z" fill="white"/>
<path d="M218.59 37.5213L174.815 44.9118L193.86 58.5559C197.555 61.1142 202.387 60.2614 204.946 56.5661L218.59 37.5213Z" fill="#E6E9EE"/>
<path d="M270.715 141.299L274.831 135.506L175.653 65.0399L171.537 70.8329L270.715 141.299Z" fill="#E6E9EE"/>
<path d="M263.906 150.488L164.727 80.0221L160.611 85.8152L259.79 156.281L263.906 150.488Z" fill="#E6E9EE"/>
<path d="M149.801 100.909L230.528 158.328H242.751L154.065 95.2244L149.801 100.909Z" fill="#E6E9EE"/>
<path d="M139.283 116.259L198.408 158.328H210.631L143.263 110.29L139.283 116.259Z" fill="#E6E9EE"/>
<path d="M128.482 131.324L166.287 158.328H178.51L132.461 125.355L128.482 131.324Z" fill="#E6E9EE"/>
<path d="M117.68 146.39L134.167 158.328H146.674L121.66 140.705L117.68 146.39Z" fill="#E6E9EE"/>
<path d="M284.536 148.664H67.3677V171.12H284.536V148.664Z" fill="#F9B54C"/>
<path d="M100.909 148.664L94.0874 158.328H273.45L280.272 148.664H100.909Z" fill="#E6E9EE"/>
<path d="M249.005 148.664L259.806 156.339L263.786 150.369L261.512 148.664H249.005Z" fill="#CED5E0"/>
<path d="M217.169 148.664L230.528 158.328H242.751L229.391 148.664H217.169Z" fill="#CED5E0"/>
<path d="M185.048 148.664L198.408 158.328H210.631L197.271 148.664H185.048Z" fill="#CED5E0"/>
<path d="M152.928 148.664L166.287 158.328H178.51L165.15 148.664H152.928Z" fill="#CED5E0"/>
<path d="M120.807 148.664L134.167 158.328H146.674L133.03 148.664H120.807Z" fill="#CED5E0"/>
<path d="M299.033 152.928H52.8709C45.7646 152.928 41.5008 160.318 43.2063 169.414L65.0937 278.283C66.2307 284.252 71.9158 289.368 77.6008 289.368H274.303C279.988 289.368 285.673 284.536 286.81 278.283L308.698 169.414C310.403 160.602 306.139 152.928 299.033 152.928Z" fill="#FFD05B"/>
</svg>
