<svg width="85" height="85" viewBox="0 0 85 85" fill="none" xmlns="http://www.w3.org/2000/svg">
<path d="M13.7373 6.0141H49.5014C50.5562 6.0141 51.419 6.87721 51.419 7.93174V55.4168C51.419 56.4717 50.5559 57.3345 49.5014 57.3345H13.7373C12.6824 57.3345 11.8196 56.4714 11.8196 55.4168V7.93174C11.8196 6.87672 12.6828 6.0141 13.7373 6.0141Z" fill="#807D7D"/>
<path d="M13.4067 10.3033H49.8316V53.0456H13.4067V10.3033Z" fill="#20D0C2"/>
<path d="M31.619 53.673C32.4261 53.673 33.0809 54.3274 33.0809 55.1353C33.0809 55.9424 32.4265 56.5972 31.619 56.5972C30.8115 56.5972 30.157 55.9428 30.157 55.1353C30.157 54.3278 30.8115 53.673 31.619 53.673Z" fill="#C8CACC"/>
<path d="M79.8197 13.3495H51.4411V51.0613H79.8197V13.3495V13.3495Z" fill="#DFE1E3"/>
<path d="M78.798 13.3495C69.5218 13.3495 60.6614 9.394 50.9688 13.3495V48.6748H78.798V13.3495Z" fill="white"/>
<path d="M22.1172 13.3495H49.7763V51.0613H22.1172V13.3495Z" fill="#DFE1E3"/>
<path d="M23.1389 13.3495C32.4154 13.3495 45.8208 9.46288 50.9688 13.3495V48.6748H23.1389V13.3495Z" fill="white"/>
<path d="M50.4966 13.3495H51.4403V48.6748H50.4966V13.3495Z" fill="#ECF0F1"/>
<path d="M25.5171 16.3323H36.2578V17.8078H25.5171V16.3323Z" fill="#FBB429"/>
<path d="M25.5171 40.3053H46.9984V41.0034H25.5171V40.3053ZM25.5171 38.8978H46.9984V39.5959H25.5171V38.8978ZM25.5171 29.6919H46.9984V30.3895H25.5171V29.6919ZM25.5171 36.7301H34.9232V37.4282H25.5171V36.7301V36.7301ZM25.5171 35.3223H46.9984V36.0199H25.5171V35.3223ZM25.5171 33.9145H46.9984V34.6126H25.5171V33.9145ZM25.5171 32.5072H46.9984V33.2048H25.5171V32.5072ZM25.5171 31.099H46.9984V31.7971H25.5171V31.099ZM25.5171 45.9357H32.9103V46.6338H25.5171V45.9357V45.9357ZM25.5171 44.5279H46.9984V45.226H25.5171V44.5279ZM25.5171 43.1201H46.9984V43.8182H25.5171V43.1201ZM25.5171 41.7126H46.9984V42.4102H25.5171V41.7126Z" fill="#DFE1E3"/>
<path d="M54.1428 30.39H75.6241V31.0876H54.1428V30.39ZM54.1428 28.9822H75.6241V29.6803H54.1428V28.9822ZM54.1428 19.7763H75.6241V20.4739H54.1428V19.7763ZM54.1428 26.8148H63.5481V27.5124H54.1428V26.8148ZM54.1428 25.4067H75.6241V26.1051H54.1428V25.4067ZM54.1428 23.9994H75.6241V24.697H54.1428V23.9994ZM54.1428 22.5916H63.5481V23.2892H54.1428V22.5916ZM54.1428 21.1838H75.6241V21.8814H54.1428V21.1838ZM54.1428 36.0201H61.5357V36.7182H54.1428V36.0201ZM54.1428 34.6126H75.6241V35.3107H54.1428V34.6126ZM54.1428 33.2048H75.6241V33.9024H54.1428V33.2048ZM54.1428 31.797H75.6241V32.4951H54.1428V31.797Z" fill="#DFE1E3"/>
<path d="M56.358 11.8074L59.2643 11.5577V26.6447L57.8015 25.5802L56.3578 26.6447V11.8077V11.8074H56.358Z" fill="#FF5B61"/>
<path d="M27.1054 7.85519H36.1323C36.4288 7.85519 36.6715 8.09758 36.6715 8.39441C36.6715 8.69158 36.4292 8.93363 36.1323 8.93363H27.1054C26.8089 8.93363 26.5662 8.69125 26.5662 8.39441C26.5662 8.09758 26.8085 7.85519 27.1054 7.85519Z" fill="#C8CACC"/>
<path d="M62.2806 26.995L62.4805 27.9811L60.6328 28.0382L60.4329 27.0521C60.188 25.8463 62.1309 25.8007 62.2806 26.995Z" fill="white"/>
<path d="M57.3808 41.5296C57.3717 41.5721 57.5287 43.5378 57.5287 43.5378L56.5723 43.5213L56.6264 41.4397C56.6263 41.4397 57.1751 41.1933 57.3808 41.5296Z" fill="white"/>
<path d="M16.0909 7.48615C16.5928 7.48615 16.999 7.89239 16.999 8.39425C16.999 8.89611 16.5928 9.30269 16.0909 9.30269C15.5894 9.30269 15.1825 8.89595 15.1825 8.39425C15.1823 7.89288 15.5891 7.48615 16.0909 7.48615Z" fill="#C8CACC"/>
<path d="M16.0909 7.60733C16.5253 7.60733 16.8778 7.95978 16.8778 8.39424C16.8778 8.82871 16.5253 9.18116 16.0909 9.18116C15.6561 9.18116 15.304 8.82871 15.304 8.39424C15.304 7.95978 15.6559 7.60733 16.0909 7.60733Z" fill="#807D7D"/>
<path d="M25.5171 19.1541H46.9451V28.3867H25.5171V19.1541Z" fill="#ECF0F1"/>
</svg>
