<svg width="72" height="72" viewBox="0 0 72 72" fill="none" xmlns="http://www.w3.org/2000/svg">
<path d="M8.40085 13.5529H38.6951C39.5887 13.5529 40.3195 14.2841 40.3195 15.1773V55.4C40.3195 56.2935 39.5884 57.0243 38.6951 57.0243H8.40085C7.50732 57.0243 6.77649 56.2932 6.77649 55.4V15.1773C6.77649 14.2836 7.5076 13.5529 8.40085 13.5529Z" fill="#807D7D"/>
<path d="M8.12085 17.1861H38.9748V53.3914H8.12085V17.1861Z" fill="#20D0C2"/>
<path d="M23.5477 53.9229C24.2314 53.9229 24.786 54.4772 24.786 55.1615C24.786 55.8452 24.2317 56.3998 23.5477 56.3998C22.8637 56.3998 22.3093 55.8455 22.3093 55.1615C22.3093 54.4775 22.8637 53.9229 23.5477 53.9229Z" fill="#C8CACC"/>
<path d="M64.3765 19.7664H40.3382V51.7105H64.3765V19.7664V19.7664Z" fill="#DFE1E3"/>
<path d="M63.511 19.7664C55.6536 19.7664 48.1483 16.4159 39.938 19.7664V49.6891H63.511V19.7664Z" fill="white"/>
<path d="M15.4991 19.7664H38.928V51.7105H15.4991V19.7664Z" fill="#DFE1E3"/>
<path d="M16.3646 19.7664C24.2223 19.7664 35.5775 16.4743 39.9381 19.7664V49.689H16.3646V19.7664Z" fill="white"/>
<path d="M39.5381 19.7664H40.3375V49.6891H39.5381V19.7664Z" fill="#ECF0F1"/>
<path d="M18.379 22.293H27.477V23.5429H18.379V22.293Z" fill="#FBB429"/>
<path d="M18.379 42.5996H36.5749V43.1909H18.379V42.5996ZM18.379 41.4074H36.5749V41.9987H18.379V41.4074ZM18.379 33.6094H36.5749V34.2003H18.379V33.6094ZM18.379 39.5712H26.3466V40.1626H18.379V39.5712V39.5712ZM18.379 38.3787H36.5749V38.9696H18.379V38.3787ZM18.379 37.1862H36.5749V37.7776H18.379V37.1862ZM18.379 35.9942H36.5749V36.5851H18.379V35.9942ZM18.379 34.8014H36.5749V35.3927H18.379V34.8014ZM18.379 47.3689H24.6415V47.9602H18.379V47.3689V47.3689ZM18.379 46.1764H36.5749V46.7677H18.379V46.1764ZM18.379 44.9839H36.5749V45.5752H18.379V44.9839ZM18.379 43.7917H36.5749V44.3826H18.379V43.7917Z" fill="#DFE1E3"/>
<path d="M42.6267 34.2008H60.8226V34.7917H42.6267V34.2008ZM42.6267 33.0083H60.8226V33.5996H42.6267V33.0083ZM42.6267 25.2103H60.8226V25.8012H42.6267V25.2103ZM42.6267 31.1724H50.5935V31.7633H42.6267V31.1724ZM42.6267 29.9796H60.8226V30.5712H42.6267V29.9796ZM42.6267 28.7875H60.8226V29.3785H42.6267V28.7875ZM42.6267 27.595H50.5935V28.186H42.6267V27.595ZM42.6267 26.4025H60.8226V26.9935H42.6267V26.4025ZM42.6267 38.9698H48.8889V39.5611H42.6267V38.9698ZM42.6267 37.7776H60.8226V38.3689H42.6267V37.7776ZM42.6267 36.5851H60.8226V37.176H42.6267V36.5851ZM42.6267 35.3926H60.8226V35.9839H42.6267V35.3926Z" fill="#DFE1E3"/>
<path d="M44.5031 18.4602L46.9649 18.2487V31.0283L45.7258 30.1266L44.5029 31.0283V18.4605V18.4602H44.5031Z" fill="#FF5B61"/>
<path d="M19.7244 15.1125H27.3707C27.6219 15.1125 27.8275 15.3178 27.8275 15.5692C27.8275 15.8209 27.6222 16.026 27.3707 16.026H19.7244C19.4732 16.026 19.2676 15.8206 19.2676 15.5692C19.2676 15.3178 19.473 15.1125 19.7244 15.1125Z" fill="#C8CACC"/>
<path d="M49.5199 31.325L49.6892 32.1603L48.124 32.2087L47.9547 31.3733C47.7473 30.352 49.393 30.3133 49.5199 31.325Z" fill="white"/>
<path d="M45.3695 43.6367C45.3617 43.6727 45.4948 45.3377 45.4948 45.3377L44.6846 45.3238L44.7305 43.5605C44.7303 43.5605 45.1952 43.3518 45.3695 43.6367Z" fill="white"/>
<path d="M10.3945 14.7999C10.8196 14.7999 11.1637 15.144 11.1637 15.5691C11.1637 15.9942 10.8196 16.3386 10.3945 16.3386C9.96967 16.3386 9.625 15.9941 9.625 15.5691C9.62486 15.1444 9.96939 14.7999 10.3945 14.7999Z" fill="#C8CACC"/>
<path d="M10.3945 14.9025C10.7625 14.9025 11.061 15.201 11.061 15.5691C11.061 15.9371 10.7625 16.2356 10.3945 16.2356C10.0262 16.2356 9.72791 15.9371 9.72791 15.5691C9.72791 15.201 10.026 14.9025 10.3945 14.9025Z" fill="#807D7D"/>
<path d="M18.379 24.6833H36.5298V32.5038H18.379V24.6833Z" fill="#ECF0F1"/>
</svg>
